<?xml version="1.0" standalone="no"?>
<!DOCTYPE svg PUBLIC "-//W3C//DTD SVG 20010904//EN"
 "http://www.w3.org/TR/2001/REC-SVG-20010904/DTD/svg10.dtd">
<svg version="1.0" xmlns="http://www.w3.org/2000/svg"
 width="300.000000pt" height="300.000000pt" viewBox="0 0 300.000000 300.000000"
 preserveAspectRatio="xMidYMid meet">
<metadata>
Created by potrace 1.14, written by Peter Selinger 2001-2017
</metadata>
<g transform="translate(0.000000,300.000000) scale(0.100000,-0.100000)"
fill="#000000" stroke="none">
<path d="M1054 2680 c0 -61 -3 -100 -9 -100 -5 0 -4 -4 3 -9 8 -4 14 -12 14
-16 0 -4 -6 -12 -14 -16 -7 -5 -8 -9 -3 -9 6 0 10 -63 9 -170 -1 -142 1 -170
13 -170 8 0 11 -4 8 -10 -3 -5 1 -10 9 -10 9 0 16 -9 16 -20 0 -14 5 -18 17
-13 11 4 14 3 9 -5 -4 -7 -3 -12 2 -12 16 0 52 -41 46 -52 -4 -6 -3 -8 4 -4 6
3 17 -3 25 -14 7 -11 17 -17 20 -13 4 3 7 0 7 -8 0 -8 9 -20 20 -27 12 -7 18
-17 15 -22 -3 -6 1 -7 9 -4 11 4 16 0 16 -11 0 -9 5 -13 10 -10 6 3 10 -1 10
-9 0 -9 3 -16 8 -16 4 -1 21 -12 37 -26 22 -18 25 -23 10 -19 -11 3 -5 -2 13
-11 17 -10 32 -21 32 -25 0 -16 49 -57 54 -46 2 7 5 2 5 -10 1 -13 7 -23 15
-23 8 0 18 -9 21 -20 4 -11 11 -18 16 -15 5 4 9 3 9 -2 0 -4 10 -19 21 -33 11
-14 18 -18 14 -10 -4 9 0 7 8 -3 9 -10 24 -25 34 -34 10 -8 12 -12 3 -8 -8 4
-6 -1 5 -9 11 -9 38 -33 59 -53 22 -21 43 -37 48 -36 4 2 7 -3 5 -10 -1 -6 4
-11 10 -10 7 2 12 0 12 -5 -3 -20 3 -32 17 -32 9 0 18 -9 21 -20 3 -11 10 -20
15 -20 14 0 38 -27 31 -34 -4 -3 -1 -6 6 -6 16 0 42 -26 34 -34 -4 -3 0 -6 9
-6 18 0 61 -44 51 -53 -3 -4 1 -7 11 -7 9 0 14 -4 11 -10 -3 -5 -1 -10 6 -10
9 0 9 -3 0 -14 -8 -10 -9 -16 -1 -21 12 -8 9 -37 -5 -47 -7 -5 -7 -11 0 -15
13 -10 14 -83 2 -83 -5 0 -4 -7 3 -15 10 -12 10 -18 -1 -32 -12 -15 -12 -16 1
-8 13 8 13 7 1 -8 -7 -9 -9 -17 -4 -17 13 0 11 -73 -2 -82 -6 -5 -5 -8 3 -8
10 0 10 -5 2 -20 -6 -11 -7 -20 -2 -20 5 0 9 -7 9 -15 0 -8 -5 -15 -10 -15 -5
0 -4 -6 2 -14 13 -15 11 -37 -4 -48 -7 -5 -6 -11 0 -15 14 -10 13 -76 0 -85
-6 -5 -5 -8 3 -8 10 0 10 -5 2 -20 -6 -11 -7 -20 -2 -20 5 0 9 -7 9 -15 0 -8
-5 -15 -10 -15 -5 0 -4 -6 2 -14 13 -15 11 -37 -4 -49 -7 -4 -6 -10 0 -15 14
-9 13 -75 0 -84 -6 -5 -5 -8 4 -8 11 0 11 -3 1 -15 -7 -8 -8 -15 -3 -15 12 0
11 -73 -2 -82 -6 -5 -5 -8 3 -8 9 0 10 -5 4 -18 -5 -9 -6 -26 -2 -37 4 -11 3
-30 -1 -43 -7 -17 -5 -24 6 -28 8 -4 13 -9 11 -13 -3 -4 11 -7 29 -7 18 0 31
4 29 8 -8 13 11 9 25 -4 11 -11 12 -10 6 2 -8 13 -7 13 8 1 11 -9 17 -10 17
-2 0 6 5 11 11 11 5 0 8 -4 5 -8 -2 -4 11 -8 29 -8 18 0 31 4 29 8 -3 4 -1 8
5 8 5 0 12 -4 15 -8 6 -10 92 -9 102 1 10 10 26 9 20 -1 -3 -5 1 -9 9 -9 8 0
15 4 15 9 0 4 5 8 11 8 5 0 8 -4 5 -9 -6 -10 46 -7 63 3 6 4 11 1 11 -6 0 -9
3 -9 10 2 5 8 10 10 10 4 0 -6 7 -11 15 -11 8 0 12 4 9 9 -6 10 10 11 20 1 10
-11 37 -12 30 -2 -3 5 -1 9 5 9 5 0 13 -5 16 -10 4 -7 13 -7 26 0 14 8 19 7
19 -2 0 -9 3 -9 10 2 5 8 10 10 10 4 0 -6 7 -11 15 -11 8 0 12 4 9 9 -6 10 10
11 20 1 10 -11 37 -12 30 -2 -8 13 10 11 25 -3 11 -11 12 -10 6 2 -8 13 -7 13
8 1 11 -9 17 -10 17 -2 0 6 5 11 11 11 5 0 8 -3 5 -8 -2 -4 18 -7 45 -7 38 0
48 3 44 14 -4 10 -2 11 8 3 11 -9 13 12 11 123 -1 79 2 135 8 135 5 0 6 5 3
10 -4 6 -12 8 -18 4 -7 -3 -3 2 7 10 11 9 15 16 10 16 -6 0 -10 18 -10 41 1
22 -3 43 -8 46 -5 3 -1 12 9 20 11 7 14 13 9 13 -6 0 -10 18 -10 41 1 22 -3
43 -8 46 -5 3 -1 12 9 20 12 8 14 13 6 13 -8 0 -11 8 -8 20 3 11 0 23 -5 27
-7 4 -4 11 7 20 11 7 14 13 9 13 -6 0 -10 18 -10 41 1 22 -3 43 -8 46 -5 3 -1
12 9 20 11 7 14 13 9 13 -6 0 -10 18 -10 41 1 22 -3 43 -8 46 -5 3 -1 12 9 20
11 7 13 13 7 13 -7 0 -12 9 -12 20 0 11 5 20 11 20 5 0 7 5 4 10 -4 6 -12 8
-18 4 -7 -3 -3 2 7 10 11 9 15 16 10 16 -6 0 -10 18 -10 41 1 22 -3 43 -8 46
-5 3 -1 12 9 20 11 7 14 13 9 13 -6 0 -10 18 -10 41 1 22 -3 43 -8 46 -5 3 -1
12 9 20 12 8 14 13 6 13 -8 0 -11 8 -8 20 3 11 0 23 -5 27 -7 4 -4 11 7 20 11
7 14 13 9 13 -6 0 -10 18 -10 41 1 22 -3 43 -8 46 -5 3 -1 12 9 20 11 7 14 13
9 13 -6 0 -10 18 -10 41 1 22 -3 43 -8 46 -5 3 -1 12 9 20 11 7 13 13 7 13 -7
0 -12 9 -12 20 0 11 5 20 11 20 5 0 7 5 4 10 -4 6 -12 8 -18 4 -7 -3 -3 2 7
10 11 9 15 16 10 16 -6 0 -10 18 -10 41 1 22 -3 43 -8 46 -5 3 -1 12 9 20 11
7 14 13 9 13 -6 0 -10 18 -10 41 1 22 -3 43 -8 46 -5 3 -1 12 9 20 12 8 14 13
6 13 -8 0 -11 8 -8 20 3 11 0 23 -5 27 -7 4 -4 11 7 20 11 7 14 13 9 13 -6 0
-10 18 -10 41 1 22 -3 43 -8 46 -5 3 -1 12 9 20 11 7 14 13 9 13 -6 0 -10 18
-10 41 1 22 -3 43 -8 46 -5 3 -1 12 9 20 11 7 13 13 7 13 -7 0 -12 9 -12 20 0
11 5 20 11 20 5 0 7 5 4 10 -4 6 -12 8 -18 4 -7 -3 -3 2 7 10 11 9 15 16 10
16 -6 0 -10 17 -9 38 1 20 -2 42 -7 49 -6 7 -3 15 9 22 10 6 13 11 7 11 -6 0
-10 17 -10 41 1 22 -3 43 -8 46 -5 3 -1 12 9 20 11 7 14 13 7 13 -6 0 -11 15
-10 38 0 20 0 45 -1 55 -1 16 -51 17 -900 17 l-899 0 2 -100z m426 -213 c0 8
9 9 30 3 18 -5 30 -5 30 1 0 5 5 9 11 9 5 0 8 -3 6 -7 -3 -5 28 -8 69 -8 41 0
74 3 74 8 0 4 5 7 11 7 5 0 8 -4 5 -8 -3 -5 16 -6 42 -3 57 7 94 3 87 -10 -4
-5 -1 -9 4 -9 6 0 11 -5 11 -11 0 -5 -4 -8 -8 -5 -5 3 -9 -1 -9 -9 0 -8 4 -12
9 -9 4 3 8 1 8 -5 0 -5 -4 -12 -10 -16 -5 -3 -7 -12 -4 -20 4 -8 10 -12 15 -9
5 3 6 -2 3 -10 -3 -9 -9 -14 -13 -11 -4 2 -8 -2 -8 -10 0 -8 3 -12 7 -10 9 6
4 -90 -6 -106 -4 -8 -3 -10 4 -5 7 4 12 1 12 -8 0 -9 -6 -16 -12 -17 -10 0
-10 -2 0 -6 6 -2 12 -9 12 -14 0 -6 -4 -8 -9 -5 -5 4 -8 -2 -6 -11 2 -10 4
-22 4 -26 1 -5 5 -5 11 -2 6 3 7 -1 4 -9 -3 -9 -9 -14 -13 -11 -4 2 -8 -2 -8
-10 0 -8 4 -12 8 -9 9 5 4 -50 -6 -66 -4 -6 1 -7 12 -4 17 5 17 5 1 -9 -10 -8
-14 -18 -10 -23 4 -4 -2 -2 -12 6 -17 13 -18 13 -11 1 6 -11 4 -13 -7 -8 -9 3
-21 0 -28 -6 -7 -7 -10 -7 -7 -2 3 6 -28 10 -84 11 -49 0 -89 -4 -89 -8 0 -5
-5 -6 -10 -3 -6 4 -8 12 -4 18 3 7 -2 3 -10 -7 -9 -11 -16 -16 -16 -10 0 5
-45 9 -100 10 -64 0 -100 -3 -100 -10 0 -6 -5 -4 -10 4 -9 13 -11 13 -20 0 -8
-13 -10 -12 -10 3 0 9 -5 17 -11 17 -5 0 -7 -6 -3 -12 4 -7 5 -11 1 -8 -3 3
-6 10 -7 15 -1 6 -6 15 -11 22 -7 7 -6 14 1 18 8 5 8 10 0 20 -8 10 -8 15 1
21 8 5 9 3 4 -6 -5 -9 -4 -11 3 -6 8 5 9 13 2 25 -5 10 -7 21 -3 24 3 4 0 13
-6 21 -9 11 -9 16 0 22 8 5 10 3 4 -7 -5 -8 -4 -11 0 -6 5 4 9 16 10 26 1 13
-3 17 -14 13 -13 -5 -14 -3 -5 9 14 17 15 50 2 66 -6 7 -4 14 3 19 8 5 9 3 4
-6 -6 -9 -4 -11 4 -6 9 6 8 12 -4 26 -12 14 -13 20 -4 26 8 5 10 3 4 -6 -5 -9
-4 -11 3 -6 8 5 9 13 3 24 -4 9 -6 23 -3 31 3 10 0 11 -9 5 -12 -7 -12 -5 -1
9 8 9 12 22 9 29 -2 7 0 21 5 31 5 11 5 17 -2 17 -5 0 -10 5 -10 11 0 5 5 7
10 4 6 -3 10 -1 10 4 0 6 5 11 11 11 5 0 8 -3 6 -7 -3 -5 6 -8 19 -8 13 0 24
3 24 8 0 4 5 7 11 7 5 0 8 -4 5 -9 -3 -4 6 -6 19 -3 14 2 28 9 32 15 4 6 11 3
20 -8 7 -11 13 -14 13 -8z m720 8 c0 15 1 15 17 -1 12 -12 18 -13 21 -4 3 9 6
9 13 -1 7 -11 9 -11 9 -1 0 10 5 10 20 2 15 -8 20 -8 20 2 0 9 3 9 10 -2 8
-12 10 -12 10 -1 0 11 3 11 15 1 12 -10 15 -10 15 0 0 9 4 9 13 2 8 -7 18 -7
27 -2 8 5 21 5 32 -1 14 -8 18 -6 18 8 0 14 2 15 9 4 10 -15 131 -23 131 -8 0
4 6 2 14 -5 10 -9 11 -17 4 -25 -7 -9 -7 -13 0 -13 11 0 11 -18 -1 -37 -4 -6
-3 -15 3 -18 8 -5 8 -11 0 -20 -8 -10 -8 -15 0 -20 8 -5 8 -10 0 -20 -8 -10
-8 -15 0 -20 8 -5 8 -10 0 -20 -8 -10 -8 -15 0 -20 8 -5 8 -10 0 -20 -8 -10
-8 -15 0 -20 8 -5 8 -10 0 -20 -8 -10 -8 -15 0 -20 8 -5 8 -10 0 -20 -8 -10
-8 -15 0 -20 8 -5 8 -10 0 -20 -8 -10 -8 -15 0 -20 8 -5 8 -10 0 -20 -6 -8 -7
-16 -2 -19 12 -7 6 -60 -7 -64 -6 -2 -8 -9 -4 -15 3 -7 -3 -4 -14 6 -21 18
-22 18 -32 0 -6 -10 -11 -13 -11 -8 0 12 -200 15 -200 3 0 -5 -5 -6 -10 -3 -6
4 -8 12 -4 18 3 7 -2 3 -10 -7 -9 -11 -16 -16 -16 -10 0 5 -18 10 -40 11 -25
2 -39 -1 -35 -7 3 -6 -1 -7 -9 -4 -9 3 -13 11 -10 18 3 6 -1 3 -9 -7 -11 -13
-16 -15 -20 -5 -4 11 -8 11 -27 0 -12 -8 -19 -9 -15 -3 3 6 -1 11 -9 11 -9 0
-16 -6 -16 -12 0 -10 -2 -10 -9 0 -4 8 -11 13 -15 13 -3 -1 -5 1 -3 4 1 2 -7
11 -18 20 -11 9 -15 14 -9 11 7 -3 15 1 18 10 3 8 2 12 -4 9 -5 -3 -8 4 -7 15
1 11 4 20 7 20 4 0 7 7 7 15 0 12 -3 12 -15 2 -13 -10 -14 -9 -5 8 6 11 8 26
5 34 -3 8 0 11 7 7 7 -5 9 -1 5 8 -3 9 -11 13 -18 10 -6 -3 -2 2 8 10 13 10
15 16 7 16 -11 0 -11 3 -2 14 10 11 8 17 -6 25 -11 6 -13 11 -5 11 8 0 12 6 9
13 -2 6 0 20 4 29 7 12 4 20 -8 27 -12 7 -13 11 -5 11 8 0 12 6 9 13 -2 6 0
20 4 29 7 12 4 20 -8 27 -12 7 -13 10 -4 11 7 0 11 6 8 15 -4 8 -1 17 5 21 7
4 6 9 -3 15 -24 15 7 26 58 21 34 -3 44 -1 38 8 -4 7 4 4 19 -5 24 -16 26 -16
26 0z m-94 -1314 c-7 -11 65 -9 83 3 10 6 12 6 7 -2 -9 -16 16 -16 32 0 8 8
15 8 28 -3 14 -12 18 -12 22 0 4 11 6 11 12 0 7 -10 12 -10 23 0 9 7 18 8 21
3 7 -12 76 -10 95 2 10 6 12 6 7 -2 -4 -7 -1 -12 8 -12 8 0 17 4 20 9 9 13 47
1 40 -13 -3 -6 2 -2 10 8 15 18 21 15 16 -9 -1 -5 9 -1 21 10 12 11 19 14 14
6 -6 -11 -4 -13 8 -8 10 3 17 2 17 -4 0 -6 4 -8 9 -5 10 7 9 -13 -2 -31 -4 -6
-3 -15 3 -18 8 -5 8 -11 0 -20 -8 -10 -8 -15 0 -20 8 -5 8 -10 0 -20 -8 -10
-8 -15 0 -20 8 -5 8 -10 0 -20 -8 -10 -8 -15 0 -20 8 -5 8 -10 0 -20 -8 -10
-8 -15 0 -20 8 -5 8 -10 0 -20 -8 -10 -8 -15 0 -20 8 -5 8 -10 0 -20 -8 -10
-8 -15 0 -20 8 -5 8 -10 0 -20 -8 -10 -8 -15 0 -20 8 -5 8 -11 1 -19 -6 -7 -8
-16 -4 -20 11 -10 11 -46 0 -46 -5 0 -4 -7 3 -15 10 -12 10 -15 -1 -15 -11 0
-11 -2 1 -10 13 -8 12 -10 -3 -10 -11 0 -15 -5 -11 -11 4 -7 0 -9 -14 -5 -48
15 -62 15 -62 -2 -1 -16 -1 -16 -11 1 -5 9 -15 17 -20 17 -6 0 -8 -4 -5 -8 3
-5 -1 -9 -9 -9 -8 0 -15 3 -15 6 0 3 -15 6 -34 6 -19 0 -32 -3 -29 -7 7 -13
-12 -9 -25 4 -9 9 -12 9 -12 0 0 -8 -7 -9 -26 -2 -16 7 -23 7 -19 0 8 -13 -1
-13 -26 0 -15 9 -19 7 -20 -7 0 -16 -1 -16 -9 2 -5 12 -9 14 -9 6 -1 -11 -6
-10 -21 4 -20 18 -21 18 -14 -1 7 -17 6 -18 -11 -4 -11 9 -16 10 -11 3 9 -16
1 -16 -26 -2 -15 8 -19 8 -14 0 4 -6 2 -11 -3 -11 -6 0 -11 8 -12 18 0 16 -1
16 -7 0 -5 -12 -11 -15 -21 -9 -8 5 -21 7 -29 3 -11 -4 -14 -1 -9 12 4 10 3
15 -3 11 -13 -8 -8 38 5 47 6 5 5 8 -2 8 -7 0 -12 11 -11 25 1 14 5 25 9 25 3
0 6 7 6 15 0 12 -3 12 -15 2 -13 -10 -14 -9 -5 8 6 11 8 26 5 34 -3 8 0 11 7
7 7 -5 9 -1 5 8 -3 9 -11 13 -18 10 -6 -3 -2 2 8 10 13 10 15 16 7 16 -11 0
-11 3 -2 14 10 11 8 17 -6 25 -11 6 -13 11 -5 11 8 0 12 6 9 13 -2 6 0 20 4
29 7 12 4 20 -8 27 -10 6 -13 11 -7 11 6 0 12 20 13 45 2 71 4 76 17 71 8 -3
16 -1 19 4 4 6 8 10 11 10 3 0 3 -4 0 -9z"/>
<path d="M903 1953 c-12 -13 -19 -23 -15 -23 4 0 -5 -8 -21 -18 -15 -10 -24
-22 -20 -27 5 -4 0 -5 -9 -2 -10 4 -18 2 -18 -3 0 -15 -163 -175 -174 -172 -6
2 -8 1 -4 -3 7 -8 -50 -65 -66 -65 -6 0 -4 -5 4 -10 11 -7 11 -10 2 -10 -17 0
-128 -109 -124 -122 1 -5 -2 -7 -7 -4 -5 3 -12 -1 -15 -10 -3 -8 -10 -12 -16
-9 -5 3 -10 1 -10 -5 0 -5 -51 -60 -112 -122 -62 -61 -112 -115 -111 -119 2
-5 -4 -6 -12 -3 -14 6 -20 -6 -16 -30 1 -5 -5 -6 -14 -2 -11 4 -14 2 -8 -7 12
-20 13 -40 0 -56 -8 -10 -8 -13 -1 -8 7 4 15 0 18 -9 3 -8 2 -12 -3 -9 -5 3
-12 1 -16 -5 -3 -5 -2 -10 2 -10 5 0 8 -38 7 -85 -2 -62 1 -83 10 -78 6 4 3
-5 -7 -20 -9 -14 -17 -30 -17 -34 0 -4 4 -2 9 5 6 10 10 7 13 -12 3 -15 1 -29
-5 -33 -6 -4 -7 -1 -2 7 5 9 4 11 -4 6 -6 -4 -8 -13 -4 -19 12 -19 13 -46 3
-52 -6 -3 -10 -12 -10 -18 0 -8 3 -8 9 1 6 10 10 7 13 -12 3 -15 1 -29 -5 -33
-6 -4 -7 -1 -2 7 5 9 4 11 -4 6 -6 -4 -8 -13 -4 -19 12 -20 12 -41 0 -56 -8
-10 -8 -13 -1 -8 7 4 15 0 18 -9 3 -8 2 -12 -3 -9 -5 3 -12 1 -16 -5 -3 -5 -2
-10 2 -10 5 0 8 -38 7 -85 -2 -62 1 -83 10 -78 6 4 3 -5 -6 -20 -10 -14 -18
-30 -18 -34 0 -4 4 -2 9 5 6 10 10 7 13 -12 3 -15 1 -29 -5 -33 -6 -4 -7 -1
-2 7 5 9 4 11 -4 6 -6 -4 -8 -13 -4 -19 12 -20 12 -41 0 -56 -8 -10 -8 -13 -1
-8 7 4 15 0 18 -9 3 -8 2 -12 -4 -9 -6 3 -10 3 -11 -2 0 -4 -2 -16 -4 -26 -2
-9 1 -15 5 -12 5 3 10 -3 12 -12 2 -13 14 -18 41 -18 27 -1 36 2 33 11 -5 12
13 10 39 -5 16 -9 96 -8 101 1 3 4 10 8 15 8 6 0 8 -4 5 -8 -3 -5 1 -9 9 -9 8
0 15 4 15 9 0 4 5 8 11 8 5 0 8 -4 5 -8 -2 -4 6 -8 19 -8 13 0 21 4 18 10 -4
5 1 7 10 3 9 -3 19 -1 23 5 4 6 3 8 -3 5 -7 -4 -9 10 -8 41 2 26 -2 53 -8 61
-10 12 -9 13 2 6 11 -6 13 -4 8 8 -3 10 -2 17 3 17 6 0 10 5 10 11 0 5 -5 7
-10 4 -14 -9 -12 8 2 24 8 9 8 11 2 8 -7 -4 -15 0 -18 9 -4 9 -2 13 5 8 8 -4
9 1 4 16 -6 17 -4 21 6 14 11 -6 12 -5 3 7 -6 8 -9 29 -7 47 1 18 -2 32 -8 32
-6 0 -3 7 6 16 15 15 15 18 0 34 -12 14 -13 20 -4 26 8 5 10 3 4 -6 -5 -9 -4
-11 4 -6 8 6 9 12 2 20 -6 7 -8 16 -4 20 4 4 1 11 -7 16 -9 6 -10 10 -3 10 14
0 13 42 -2 52 -6 5 -5 8 4 8 9 0 11 8 7 26 -5 18 -3 24 5 18 8 -5 9 -3 4 7
-12 18 -14 49 -3 49 4 0 8 8 8 18 0 14 2 15 10 2 9 -14 14 -7 11 15 -1 6 6 1
14 -9 8 -11 15 -15 15 -10 0 6 7 11 15 11 8 0 15 -5 15 -11 0 -5 7 -1 15 10 9
10 14 13 13 5 -2 -7 5 -15 15 -16 9 -2 15 1 11 6 -3 5 0 9 5 9 6 0 11 -6 11
-12 0 -10 3 -9 9 1 7 11 9 11 14 0 3 -9 6 -7 6 6 1 16 3 17 10 6 5 -8 19 -15
30 -16 11 -1 18 2 15 7 -3 4 -1 8 5 8 5 0 12 -6 14 -12 4 -10 6 -10 6 0 1 8 6
10 13 6 18 -12 58 -11 58 1 0 5 5 3 10 -5 7 -11 10 -11 10 -2 0 8 5 10 13 5
17 -10 57 -12 51 -1 -3 4 -1 8 5 8 5 0 13 -5 16 -10 4 -7 13 -7 26 0 14 8 19
7 19 -2 0 -6 7 -3 15 8 8 10 15 15 14 9 -3 -23 2 -27 18 -14 9 8 14 9 11 4 -4
-6 2 -11 12 -11 15 0 17 3 7 15 -10 12 -9 12 13 0 31 -17 42 -18 58 -6 8 6 12
5 12 -4 0 -8 6 -5 15 7 8 10 15 15 14 9 -3 -23 2 -27 18 -14 9 8 14 9 11 4 -4
-6 2 -11 12 -11 15 0 17 3 7 15 -10 12 -9 12 13 1 32 -18 49 -20 56 -9 3 5 10
9 15 9 6 0 8 -4 5 -9 -4 -5 2 -8 11 -6 10 2 18 4 18 5 0 1 8 3 18 5 9 2 15 -1
11 -6 -3 -5 -1 -9 4 -9 6 0 8 -10 5 -23 -4 -18 -3 -19 6 -7 6 8 11 10 11 4 0
-6 -3 -14 -7 -18 -4 -4 -9 -19 -10 -34 -3 -21 -1 -24 7 -12 6 9 10 10 10 3 0
-6 -4 -14 -8 -17 -11 -6 -9 -57 3 -75 5 -10 4 -12 -3 -7 -7 4 -12 1 -12 -9 0
-10 5 -14 13 -9 9 6 9 4 0 -7 -17 -17 -17 -32 0 -23 8 5 8 2 -2 -9 -7 -9 -10
-17 -6 -17 4 0 2 -6 -4 -14 -7 -9 -8 -17 -2 -20 5 -3 7 -16 4 -29 -4 -18 -3
-19 6 -7 7 9 11 10 11 3 0 -6 -4 -14 -8 -17 -11 -6 -9 -57 3 -75 5 -10 4 -12
-3 -7 -7 4 -12 1 -12 -9 0 -10 5 -14 13 -9 10 6 10 4 0 -7 -7 -7 -13 -17 -13
-22 0 -4 6 -5 13 -1 8 5 8 2 -2 -9 -7 -9 -10 -17 -6 -17 4 0 2 -6 -4 -14 -9
-10 -9 -16 -1 -21 6 -4 9 -13 6 -20 -2 -7 1 -18 7 -25 9 -10 9 -11 -1 -6 -9 5
-12 -1 -10 -23 1 -16 6 -27 10 -25 5 3 6 10 3 15 -3 5 1 6 9 3 9 -3 14 -9 11
-13 -2 -4 3 -8 11 -8 9 0 13 6 9 15 -4 12 -2 12 8 4 8 -7 17 -9 20 -5 4 3 7 0
7 -8 0 -11 2 -11 10 1 5 8 10 10 10 4 0 -6 7 -11 15 -11 8 0 12 4 9 9 -6 10
10 11 20 1 10 -11 37 -12 30 -2 -6 11 9 12 20 2 10 -11 37 -12 30 -2 -3 5 -1
9 5 9 5 0 12 -6 14 -12 4 -10 6 -10 6 0 1 8 6 10 14 5 18 -11 38 -13 31 -2 -3
5 -1 9 5 9 5 0 13 -5 16 -10 9 -14 28 -1 22 14 -3 7 -1 19 3 27 5 7 5 18 -1
25 -7 8 -6 14 1 19 8 5 8 10 0 20 -8 10 -8 15 0 20 8 5 8 10 0 20 -8 10 -8 15
0 20 8 5 8 10 0 20 -8 10 -8 15 0 20 8 5 8 11 -1 21 -9 11 -8 18 2 31 12 15
12 16 -1 8 -13 -8 -13 -7 -1 8 7 10 9 17 3 17 -11 0 -10 25 1 36 4 4 2 13 -4
21 -9 9 -8 17 0 27 9 10 9 16 1 21 -8 5 -7 11 2 23 11 13 11 14 -2 7 -13 -8
-13 -7 -1 8 7 10 9 17 3 17 -11 0 -10 25 1 36 4 4 2 13 -4 21 -7 8 -8 18 -3
26 11 14 11 37 1 54 -4 6 -3 15 3 18 8 5 8 11 0 20 -8 10 -8 15 0 20 8 5 8 10
0 20 -8 10 -8 15 0 20 8 5 8 11 -1 21 -9 11 -8 14 2 14 9 0 10 3 4 8 -12 8
-13 27 -3 38 4 4 3 13 -3 21 -9 10 -8 17 2 30 12 15 12 16 -1 8 -13 -8 -13 -7
-1 8 7 10 9 17 3 17 -11 0 -10 25 1 36 4 4 2 13 -4 21 -9 10 -8 17 2 30 12 15
12 16 -1 8 -13 -8 -13 -7 -1 8 7 9 9 17 4 17 -5 0 -9 9 -10 20 -1 11 -13 30
-27 43 -14 13 -22 27 -18 31 4 4 2 6 -3 4 -12 -3 -81 63 -77 74 1 5 -1 7 -6 5
-4 -1 -31 22 -60 51 -30 28 -58 52 -63 52 -6 0 -7 5 -4 10 3 6 -1 10 -9 10 -9
0 -16 7 -16 16 0 8 -3 13 -7 11 -10 -6 -34 19 -26 27 4 3 -1 6 -10 6 -9 0 -17
7 -17 16 0 8 -4 12 -10 9 -5 -3 -10 -1 -10 5 0 6 -4 8 -10 5 -6 -3 -7 1 -4 9
4 11 0 16 -10 16 -9 0 -16 7 -16 17 0 9 -3 14 -6 10 -8 -8 -34 18 -34 33 0 7
-7 9 -16 6 -8 -3 -13 -2 -10 2 3 5 -4 14 -14 22 -10 8 -17 17 -14 22 3 4 0 8
-7 8 -13 0 -49 38 -49 52 0 4 -6 8 -13 8 -7 0 -21 11 -31 25 -10 14 -26 25
-35 25 -13 0 -13 2 -3 9 11 6 10 10 -5 16 -10 5 -21 7 -25 7 -5 -1 -8 2 -8 7
0 12 -100 115 -100 104 0 -4 -4 -3 -8 2 -4 6 -15 2 -29 -12z"/>
<path d="M755 600 c3 -6 -1 -7 -9 -4 -12 5 -16 -1 -17 -25 0 -17 -1 -46 -1
-64 -1 -19 2 -39 6 -45 4 -7 4 -12 -1 -12 -12 0 -10 -94 2 -102 7 -5 7 -8 0
-8 -6 0 -10 -28 -10 -65 0 -47 4 -65 13 -65 8 0 10 -5 6 -13 -6 -9 -4 -9 7 0
14 14 33 18 25 5 -2 -4 5 -9 17 -9 17 -2 19 0 7 7 -13 8 -13 10 2 10 9 0 19
-6 21 -12 4 -10 6 -10 6 0 1 8 6 10 14 5 18 -11 38 -13 31 -2 -7 13 10 11 23
-2 8 -8 13 -8 17 0 4 6 12 11 17 11 6 0 8 -4 5 -9 -7 -10 13 -9 31 2 6 4 14 1
16 -5 4 -10 6 -9 6 1 1 11 4 11 16 1 10 -9 15 -9 15 -1 0 6 5 11 11 11 5 0 8
-4 5 -8 -6 -11 40 -9 50 1 12 12 26 8 19 -5 -4 -7 1 -4 9 6 9 11 16 16 16 10
0 -5 4 -2 10 6 5 9 5 19 -2 27 -5 7 -8 18 -5 25 2 7 0 25 -4 41 -4 15 -4 25 1
22 4 -3 11 2 14 11 3 8 2 13 -3 10 -5 -3 -12 1 -15 10 -3 8 -2 13 3 10 5 -3
11 1 15 9 3 8 1 17 -3 19 -5 3 -8 46 -8 96 0 62 -4 94 -13 103 -10 10 -11 9
-5 -3 6 -12 5 -13 -6 -2 -17 16 -32 16 -23 0 5 -9 2 -9 -9 1 -13 10 -17 10
-17 1 0 -10 -3 -10 -15 0 -12 10 -15 10 -15 0 0 -9 -3 -10 -13 -1 -10 8 -17 7
-27 -2 -7 -6 -10 -7 -7 -1 4 7 -5 11 -23 11 -16 0 -27 -3 -25 -7 2 -3 -5 -6
-15 -6 -10 0 -17 3 -15 6 2 4 -9 7 -25 7 -16 0 -27 -3 -25 -7 2 -3 -5 -6 -15
-6 -10 0 -16 4 -14 8 7 11 -4 10 -26 -2 -13 -7 -21 -7 -25 0 -3 5 -11 10 -16
10 -6 0 -7 -4 -4 -10z"/>
</g>
</svg>
